# xmcd
#
# Track frame offsets: 
#        150
#        12278
#        24756
#        36951
#        51446
#        63899
#        74886
#        86851
#        101590
#        112392
#        124949
#        137953
#        147617
#        160412
#        168417
#        180748
#        190211
#        200495
#        213266
#        225317
#
# Disc length: 3121 seconds
#
# Revision: 1
# Processed by: cddbd v1.5.2PL0 Copyright (c) Steve Scherf et al.
# Submitted via: ExactAudioCopy v0.90b4
#
DISCID=320c2f14
DTITLE=Dean Martin - The Platinum Collection [CD3]
DYEAR=2016
DGENRE=Jazz
TTITLE0=I Can't Give You Anything But Love
TTITLE1=How D'Ya Like Your Eggs In The Morning? (With Helen O'Connell)
TTITLE2=Sway
TTITLE3=Come Back To Sorrento
TTITLE4=Angel Baby
TTITLE5=Besame Mucho
TTITLE6=Vieni Su (Say You Love Me Too)
TTITLE7=It's Easy To Remember
TTITLE8=Oh Marie
TTITLE9=(Ma Come Bali) Bella Bimba
TTITLE10=Two Sleepy People (With Line Renaud)
TTITLE11=The Triche Trache (The Tree-Kay Trah-Kay)
TTITLE12=Simpaticó
TTITLE13=Alabamy Bound
TTITLE14=My Rifle, My Pony And Me
TTITLE15=Just A Little Bit South Of North Carolina
TTITLE16=Carolina In The Morning
TTITLE17=Belle From Barcelona
TTITLE18=Bonne Nuit
TTITLE19=Let It Snow, Let It Snow, Let It Snow
EXTD=YEAR: 2016
EXTT0=
EXTT1=
EXTT2=
EXTT3=
EXTT4=
EXTT5=
EXTT6=
EXTT7=
EXTT8=
EXTT9=
EXTT10=
EXTT11=
EXTT12=
EXTT13=
EXTT14=
EXTT15=
EXTT16=
EXTT17=
EXTT18=
EXTT19=
PLAYORDER=
